<svg width="385" height="342" viewBox="0 0 385 342" fill="none" xmlns="http://www.w3.org/2000/svg">
<path d="M279.49 6.39183C281.255 6.39183 282.686 4.96097 282.686 3.19591C282.686 1.43086 281.255 0 279.49 0C277.725 0 276.294 1.43086 276.294 3.19591C276.294 4.96097 277.725 6.39183 279.49 6.39183Z" fill="#CFCFCF"/>
<path d="M301.755 227.413C303.52 227.413 304.95 225.982 304.95 224.217C304.95 222.452 303.52 221.021 301.755 221.021C299.989 221.021 298.559 222.452 298.559 224.217C298.559 225.982 299.989 227.413 301.755 227.413Z" fill="#CFCFCF"/>
<path d="M259.381 117.926C232.019 117.926 204.225 116.812 178.227 109.595C152.228 102.377 129.39 88.7674 108.348 72.8596C94.6661 62.4819 82.1697 54.2587 64.4665 55.5155C47.1035 56.4396 30.4979 62.9232 17.1023 74.0087C-5.62818 93.7947 -2.03727 130.386 6.94002 156.097C20.5137 194.879 61.8451 221.775 96.9643 239.335C137.542 259.587 182.105 271.365 226.812 278.152C266.312 284.113 316.333 288.422 350.268 262.819C381.473 239.335 390.019 185.65 382.37 149.418C380.519 138.709 374.825 129.044 366.355 122.235C344.45 106.219 311.773 116.92 287.139 117.459C278.054 117.674 268.718 117.89 259.381 117.926Z" fill="#F2F2F2"/>
<path d="M367.897 66.1806V80.257" stroke="#BABABA" stroke-linecap="round" stroke-linejoin="round"/>
<path d="M360.897 73.2188H374.938" stroke="#BABABA" stroke-linecap="round" stroke-linejoin="round"/>
<path d="M192.521 341.64C258.701 341.64 312.35 338.296 312.35 334.171C312.35 330.046 258.701 326.702 192.521 326.702C126.342 326.702 72.6924 330.046 72.6924 334.171C72.6924 338.296 126.342 341.64 192.521 341.64Z" fill="#F2F2F2"/>
<path d="M325.412 69.7773L77.3169 47.81C70.1261 47.1733 63.7807 52.4864 63.144 59.6771L47.6978 234.124C47.0611 241.314 52.3743 247.66 59.565 248.297L307.66 270.264C314.851 270.901 321.196 265.587 321.833 258.397L337.279 83.9502C337.916 76.7594 332.603 70.414 325.412 69.7773Z" fill="white" stroke="#BABABA" stroke-linecap="round" stroke-linejoin="round"/>
<path d="M265.458 133.559L125.171 121.137C121.892 120.847 118.998 123.27 118.708 126.549L117.843 136.314C117.553 139.594 119.976 142.487 123.255 142.778L263.542 155.199C266.821 155.49 269.715 153.067 270.005 149.787L270.87 140.022C271.16 136.743 268.737 133.849 265.458 133.559Z" fill="white" stroke="#BABABA" stroke-linecap="round" stroke-linejoin="round"/>
<path d="M261.716 175.725L121.429 163.304C118.15 163.013 115.256 165.436 114.965 168.716L114.101 178.481C113.81 181.76 116.233 184.654 119.513 184.944L259.8 197.366C263.079 197.656 265.973 195.233 266.263 191.954L267.128 182.189C267.418 178.909 264.995 176.016 261.716 175.725Z" fill="white" stroke="#BABABA" stroke-linecap="round" stroke-linejoin="round"/>
<path d="M211.626 214.538L163.946 210.316C161.437 210.094 159.223 211.948 159.001 214.457L157.889 227.012C157.667 229.521 159.521 231.735 162.03 231.957L209.71 236.179C212.219 236.401 214.433 234.547 214.655 232.038L215.767 219.483C215.989 216.974 214.135 214.76 211.626 214.538Z" fill="#D2D2D2"/>
<path d="M234.1 57.6702C234.1 65.8945 231.661 73.9341 227.092 80.7723C222.523 87.6106 216.029 92.9404 208.43 96.0877C200.832 99.235 192.471 100.058 184.405 98.454C176.339 96.8495 168.929 92.8891 163.114 87.0737C157.298 81.2582 153.338 73.8489 151.734 65.7826C150.129 57.7163 150.953 49.3554 154.1 41.7571C157.247 34.1588 162.577 27.6645 169.415 23.0953C176.253 18.5261 184.293 16.0874 192.517 16.0874C197.986 16.0588 203.406 17.1149 208.464 19.1945C213.522 21.2741 218.118 24.336 221.985 28.203C225.852 32.07 228.913 36.6654 230.993 41.7234C233.073 46.7813 234.129 52.2014 234.1 57.6702Z" fill="white" stroke="#BABABA" stroke-linecap="round" stroke-linejoin="round"/>
<path d="M224.188 84.7096C220.291 89.2598 215.456 92.9126 210.013 95.417C204.571 97.9214 198.651 99.2182 192.66 99.2182C186.669 99.2182 180.749 97.9214 175.307 95.417C169.865 92.9126 165.029 89.2598 161.132 84.7096C161.672 76.7156 165.228 69.2251 171.081 63.7537C176.935 58.2824 184.648 55.2388 192.66 55.2388C200.672 55.2388 208.385 58.2824 214.239 63.7537C220.092 69.2251 223.648 76.7156 224.188 84.7096Z" fill="#D2D2D2"/>
<path d="M192.519 48.9443C200.055 48.9443 206.164 42.835 206.164 35.2988C206.164 27.7626 200.055 21.6533 192.519 21.6533C184.982 21.6533 178.873 27.7626 178.873 35.2988C178.873 42.835 184.982 48.9443 192.519 48.9443Z" fill="#D2D2D2"/>
<path d="M156.862 141.051C160.273 141.051 163.038 138.286 163.038 134.875C163.038 131.464 160.273 128.699 156.862 128.699C153.451 128.699 150.686 131.464 150.686 134.875C150.686 138.286 153.451 141.051 156.862 141.051Z" fill="#D2D2D2"/>
<path d="M181.854 143.242C185.265 143.242 188.03 140.476 188.03 137.065C188.03 133.654 185.265 130.889 181.854 130.889C178.443 130.889 175.678 133.654 175.678 137.065C175.678 140.476 178.443 143.242 181.854 143.242Z" fill="#D2D2D2"/>
<path d="M206.847 145.468C210.258 145.468 213.024 142.703 213.024 139.292C213.024 135.881 210.258 133.115 206.847 133.115C203.436 133.115 200.671 135.881 200.671 139.292C200.671 142.703 203.436 145.468 206.847 145.468Z" fill="#D2D2D2"/>
<path d="M231.839 147.658C235.251 147.658 238.016 144.893 238.016 141.482C238.016 138.071 235.251 135.306 231.839 135.306C228.428 135.306 225.663 138.071 225.663 141.482C225.663 144.893 228.428 147.658 231.839 147.658Z" fill="#D2D2D2"/>
</svg>
